<?xml version="1.0" encoding="utf-8"?>
<!-- Generator: Adobe Illustrator 22.0.1, SVG Export Plug-In . SVG Version: 6.00 Build 0)  -->
<svg version="1.1" id="图层_1" xmlns="http://www.w3.org/2000/svg" xmlns:xlink="http://www.w3.org/1999/xlink" x="0px" y="0px"
	 viewBox="0 0 62 20" style="enable-background:new 0 0 62 20;" xml:space="preserve">
<style type="text/css">
	.st0{fill:#14BCF5;}
	.st1{fill:none;stroke:#72D7F9;stroke-miterlimit:10;}
</style>
<g>
	<path class="st0" d="M20,7.9c-0.3,0.4-0.7,0.7-1.2,1.1c0.6,1,0.7,2,0.7,3.1c0,1.4-0.1,2.4-0.6,3c-0.2,0.2-0.4,0.3-0.6,0.3
		c-0.4,0.1-0.8,0.1-1.3,0.1c0-0.3-0.1-0.6-0.3-0.8c0.5,0,1,0,1.2,0c0.2,0,0.3-0.1,0.4-0.2c0.3-0.3,0.4-1.2,0.4-2.4
		c0-0.2,0-0.3,0-0.5c-0.6,0.7-1.5,1.4-2.3,1.8c-0.1-0.2-0.3-0.5-0.5-0.7c1-0.4,2.1-1.3,2.7-2.1c-0.1-0.4-0.2-0.7-0.4-1.1
		c-0.6,0.4-1.1,0.7-1.7,1c-0.1-0.2-0.4-0.4-0.5-0.6c0.6-0.3,1.3-0.6,1.8-1c-0.3-0.4-0.7-0.7-1.2-1.1l0.6-0.5C17.6,7.6,18,8,18.3,8.4
		c0.4-0.3,0.7-0.6,0.9-0.9L20,7.9z M18.9,6.3h-2.8V5.5h2.8V4.5h0.9v0.9h3.1V4.5h0.9v0.9h2.8v0.8h-2.8v0.9h-0.9V6.3h-3.1v1h-0.9V6.3z
		 M23.5,10.4c0.5,2,1.5,3.6,3.2,4.3c-0.2,0.2-0.5,0.5-0.6,0.7c-1.4-0.7-2.4-2.1-3-3.8c-0.4,1.3-1.2,2.7-3,3.8
		c-0.2-0.2-0.4-0.4-0.6-0.6c2.2-1.3,2.8-3,3-4.5h-2.7V9.6h2.8c0-0.1,0-0.3,0-0.4V7.4h0.8v1.8c0,0.1,0,0.3,0,0.4h3.1v0.8H23.5z
		 M24.4,7.5c0.6,0.4,1.3,1,1.7,1.5l-0.6,0.5c-0.3-0.4-1-1.1-1.6-1.5L24.4,7.5z"/>
	<path class="st0" d="M30.4,13.2c0.2,0.1,0.5,0.4,0.9,0.6c0.8,0.5,1.8,0.6,3.1,0.6c1.4,0,3.2-0.1,4.4-0.2c-0.1,0.2-0.2,0.6-0.3,0.9
		c-0.8,0-2.9,0.1-4.2,0.1c-1.5,0-2.5-0.1-3.3-0.7c-0.5-0.3-0.9-0.7-1.2-0.7c-0.4,0-1,0.7-1.6,1.5l-0.6-0.7c0.6-0.6,1.2-1.2,1.7-1.4
		V9.8h-1.7V9h2.5V13.2z M30.2,7.5c-0.4-0.6-1.3-1.4-2-2.1L28.8,5c0.7,0.6,1.6,1.4,2.1,2L30.2,7.5z M32.6,13.7h-0.9V7.5h3.4
		c-0.7-0.4-1.6-0.7-2.3-1L33.3,6c0.5,0.2,1.2,0.4,1.7,0.7c0.6-0.3,1.2-0.7,1.7-1h-5V4.9h5.9l0.2,0l0.5,0.4C37.6,6,36.7,6.6,35.8,7
		c0.3,0.2,0.6,0.3,0.9,0.5h1.6v5.3c0,0.4-0.1,0.6-0.4,0.8s-0.8,0.1-1.6,0.1c0-0.2-0.1-0.5-0.2-0.7c0.6,0,1.1,0,1.2,0
		c0.2,0,0.2,0,0.2-0.2v-1.1h-2.1v2h-0.8v-2h-2V13.7z M32.6,8.2v1.1h2V8.2H32.6z M34.6,11V9.9h-2V11H34.6z M35.4,8.2v1.1h2.1V8.2
		H35.4z M37.4,11V9.9h-2.1V11H37.4z"/>
	<path class="st0" d="M42.5,13c0.2,0.1,0.5,0.4,0.9,0.6c0.8,0.5,1.8,0.6,3.1,0.6c1.4,0,3.2-0.1,4.4-0.2c-0.1,0.2-0.3,0.7-0.3,1
		c-0.9,0.1-3,0.1-4.1,0.1c-1.5,0-2.5-0.1-3.3-0.7c-0.5-0.3-0.9-0.7-1.2-0.7c-0.4,0-1,0.7-1.6,1.5l-0.6-0.8c0.6-0.7,1.3-1.2,1.8-1.4
		V9.8H40V9h2.5V13z M42.1,7.3c-0.3-0.6-1.1-1.4-1.8-2.1L41,4.8c0.7,0.6,1.5,1.4,1.8,2L42.1,7.3z M48,7.5h-4.6V6.6H48V4.5h0.9v2.1
		h1.7v0.9h-1.7v4.7c0,0.6-0.2,0.9-0.6,1c-0.4,0.1-1.1,0.2-2.3,0.2c0-0.3-0.2-0.6-0.3-0.9c0.9,0,1.7,0,1.9,0c0.2,0,0.3-0.1,0.3-0.3
		V7.5z M44.6,8.4c0.6,0.7,1.4,1.7,1.7,2.3l-0.8,0.5c-0.3-0.6-1.1-1.7-1.7-2.4L44.6,8.4z"/>
</g>
<path class="st1" d="M54.2,19.5H12.8c-0.3,0-0.5-0.2-0.6-0.4l-5-8.5C7,10.2,7,9.8,7.1,9.5l5-8.5c0.1-0.3,0.4-0.4,0.6-0.4h41.4
	c0.4,0,0.8,0.4,0.8,1v17.1C55,19.1,54.6,19.5,54.2,19.5z"/>
</svg>
