<?xml version="1.0" encoding="utf-8"?>
<!-- Generator: Adobe Illustrator 22.0.1, SVG Export Plug-In . SVG Version: 6.00 Build 0)  -->
<svg version="1.1" id="图层_1" xmlns="http://www.w3.org/2000/svg" xmlns:xlink="http://www.w3.org/1999/xlink" x="0px" y="0px"
	 viewBox="0 0 72 72" style="enable-background:new 0 0 72 72;" xml:space="preserve">
<style type="text/css">
	.st0{fill:#14BCF5;}
</style>
<path class="st0" d="M8.4,8.5"/>
<path class="st0" d="M50.8,12.7"/>
<path class="st0" d="M46.5,46.5"/>
<polygon class="st0" points="25.4,8.5 25.4,25.4 33.8,33.8 33.8,0 0,0 8.5,8.5 "/>
<polygon class="st0" points="21.1,12.7 12.7,12.7 21.1,21.1 "/>
<rect x="50.8" y="12.7" class="st0" width="8.5" height="8.4"/>
<path class="st0" d="M71.9,0H38.1v33.8h33.9V0z M46.5,25.4V8.5h16.9l0,16.9H46.5z"/>
<rect x="55" y="38.1" class="st0" width="16.9" height="8.4"/>
<polygon class="st0" points="71.9,71.9 71.9,55 63.5,55 63.5,63.4 63.4,63.4 71.9,71.9 "/>
<polygon class="st0" points="0,0 0,0 0,0 "/>
<polygon class="st0" points="55,46.5 46.5,46.5 46.5,38.1 38.1,38.1 55,55 "/>
<polygon class="st0" points="90.2,0 90.2,0 90.3,0 "/>
</svg>
