<?xml version="1.0" encoding="utf-8"?>
<!-- Generator: Adobe Illustrator 22.0.1, SVG Export Plug-In . SVG Version: 6.00 Build 0)  -->
<svg version="1.1" id="图层_1" xmlns="http://www.w3.org/2000/svg" xmlns:xlink="http://www.w3.org/1999/xlink" x="0px" y="0px"
	 viewBox="0 0 62 20" style="enable-background:new 0 0 62 20;" xml:space="preserve">
<style type="text/css">
	.st0{fill:none;stroke:#C0C9D2;stroke-miterlimit:10;}
	.st1{fill:#94A3B4;}
</style>
<g>
	<path class="st0" d="M60,19.5H8.2c-0.3,0-0.6-0.2-0.8-0.4l-6.2-8.5C1,10.2,1,9.7,1.2,9.4l6.2-8.5c0.2-0.3,0.5-0.4,0.8-0.4H60
		c0.5,0,1,0.4,1,1v17.1C61,19,60.6,19.5,60,19.5z"/>
	<g>
		<path class="st1" d="M14.5,13v2.4h-0.9v-2.2c-1.3,0.2-2.6,0.5-3.6,0.6l-0.2-0.9c0.3,0,0.6-0.1,0.9-0.1v-7H9.9V5.1h5.4v0.8h-0.9
			v6.4l1-0.2v0.8L14.5,13z M11.6,5.9v1.7h2V5.9H11.6z M11.6,10h2V8.3h-2V10z M11.6,12.7c0.6-0.1,1.3-0.2,2-0.3v-1.6h-2V12.7z
			 M20.4,5.9c-0.3,2.6-1,4.6-1.9,6.2c0.6,1,1.4,1.9,2.4,2.4c-0.2,0.2-0.5,0.5-0.6,0.7c-0.9-0.6-1.6-1.4-2.2-2.3
			c-0.7,1-1.5,1.8-2.4,2.4c-0.1-0.2-0.4-0.5-0.6-0.7c0.9-0.6,1.8-1.5,2.5-2.6c-0.8-1.5-1.2-3.4-1.6-5.5h-0.6V5.8h4.3h0.2L20.4,5.9z
			 M16.8,6.7c0.3,1.7,0.7,3.3,1.3,4.6c0.7-1.3,1.2-2.8,1.4-4.6H16.8z"/>
		<path class="st1" d="M23.9,9.9c-0.4-0.4-1.4-1-2.1-1.4l0.5-0.6C23,8.3,24,8.8,24.4,9.3L23.9,9.9z M22.2,14.7
			c0.6-0.9,1.4-2.5,2-3.9l0.7,0.5c-0.5,1.3-1.3,2.8-1.9,3.9L22.2,14.7z M22.9,4.7c0.7,0.4,1.6,0.9,2.1,1.4l-0.6,0.7
			c-0.4-0.4-1.3-1.1-2-1.5L22.9,4.7z M26.8,7.4c-0.2-0.6-0.7-1.6-1.2-2.2l0.8-0.3c0.5,0.7,1.1,1.6,1.2,2.2L26.8,7.4z M32,14.4
			c0,0.5-0.1,0.8-0.5,0.9c-0.4,0.1-1,0.1-1.9,0.1c0-0.2-0.2-0.6-0.3-0.9c0.7,0,1.3,0,1.5,0s0.3-0.1,0.3-0.2v-1.5h-4.4v2.6h-0.9V7.9
			h2.7V4.6h0.9v3.4H32C32,7.9,32,14.4,32,14.4z M26.8,8.7V10h4.4V8.7H26.8z M31.2,12v-1.3h-4.4V12H31.2z M32.5,5.2
			c-0.4,0.8-0.9,1.7-1.4,2.2l-0.8-0.3c0.4-0.6,1-1.6,1.3-2.3L32.5,5.2z"/>
		<path class="st1" d="M44.3,5.7v2h-0.9V6.7h-8.1v1.1h-0.9v-2h4.7c-0.1-0.3-0.3-0.8-0.5-1.1l0.9-0.3c0.2,0.4,0.5,1,0.7,1.3L40,5.7
			H44.3z M39.8,8.2h3.8v5.6h-0.9v-0.6h-2.9v2.2h-0.9v-2.2H36v0.7h-0.9V8.2h3.8V6.9h0.9V8.2z M36,8.9v1.3h2.9V8.9H36z M38.9,12.4V11
			H36v1.4H38.9z M39.8,8.9v1.3h2.9V8.9H39.8z M42.7,12.4V11h-2.9v1.4H42.7z"/>
		<path class="st1" d="M49.4,10.9c-0.2-0.4-0.5-1.1-0.9-1.7v6.2h-0.9V9.7c-0.4,1.3-0.9,2.5-1.4,3.3c-0.1-0.3-0.3-0.6-0.5-0.9
			c0.7-1,1.5-2.9,1.8-4.5H46V6.7h1.6V4.4h0.9v2.3h1.4v0.8h-1.4V8c0.3,0.4,1.2,1.8,1.4,2.1L49.4,10.9z M56.5,10.4
			c-0.5,0.9-1.1,1.6-1.9,2.4c0.8,0.6,1.7,1.4,2.2,2l-0.7,0.6c-0.5-0.5-1.4-1.4-2.2-2c-1.1,0.9-2.5,1.6-4,2.1
			c-0.1-0.2-0.4-0.6-0.5-0.7c2.8-0.9,5.1-2.6,6.1-4.6L56.5,10.4z M55.6,8.2c-1,1.8-2.8,3.5-4.9,4.5c-0.1-0.2-0.3-0.5-0.5-0.7
			c1.2-0.6,2.3-1.4,3.2-2.3c-2.1,0.1-2.5,0.2-2.7,0.3c0-0.2-0.2-0.6-0.2-0.8c0.2,0,0.6-0.1,0.8-0.3s0.9-1.3,1.3-2h-2.3V6.2h3.1
			c-0.1-0.4-0.4-1-0.6-1.4l0.8-0.3c0.3,0.5,0.6,1.2,0.7,1.6h-0.1h2.7v0.9h-3.4c-0.4,0.7-1,1.6-1.4,2.2l2-0.1
			c0.3-0.4,0.5-0.7,0.7-1.1L55.6,8.2z"/>
	</g>
</g>
</svg>
