<?xml version="1.0" encoding="utf-8"?>
<!-- Generator: Adobe Illustrator 22.0.1, SVG Export Plug-In . SVG Version: 6.00 Build 0)  -->
<svg version="1.1" id="图层_1" xmlns="http://www.w3.org/2000/svg" xmlns:xlink="http://www.w3.org/1999/xlink" x="0px" y="0px"
	 viewBox="0 0 62 20" style="enable-background:new 0 0 62 20;" xml:space="preserve">
<style type="text/css">
	.st0{fill:none;stroke:#FEA5AC;stroke-miterlimit:10;}
	.st1{fill:#FE5461;}
</style>
<g>
	<path class="st0" d="M60,19.5H8.2c-0.3,0-0.6-0.2-0.8-0.4l-6.2-8.5C1,10.2,1,9.7,1.2,9.5L7.4,1c0.2-0.3,0.5-0.4,0.8-0.4H60
		c0.5,0,1,0.4,1,1v17.1C61,19,60.6,19.5,60,19.5z"/>
	<g>
		<path class="st1" d="M16.3,10.3c1.1,1.5,2.9,3,4.6,3.8c-0.2,0.2-0.5,0.5-0.6,0.8c-1.6-0.8-3.3-2.3-4.4-3.9v4.5H15V11
			c-1.2,1.6-2.8,3-4.4,3.8c-0.2-0.2-0.4-0.6-0.6-0.7c1.7-0.7,3.5-2.2,4.6-3.8h-4.2V9.4h4.7V7.3H11V6.4h3.9v-2h0.9v2h4v0.9h-4v2.1
			h4.8v0.9H16.3z"/>
		<path class="st1" d="M26,7.9c-0.3,0.4-0.7,0.7-1.2,1.1c0.6,1,0.7,2,0.7,3.1c0,1.4-0.1,2.4-0.6,3c-0.2,0.2-0.4,0.3-0.6,0.3
			c-0.4,0.1-0.8,0.1-1.3,0.1c0-0.3-0.1-0.6-0.3-0.8c0.5,0,1,0,1.2,0s0.3-0.1,0.4-0.2c0.3-0.3,0.4-1.2,0.4-2.4c0-0.2,0-0.3,0-0.5
			c-0.6,0.7-1.5,1.4-2.3,1.8c-0.1-0.2-0.3-0.5-0.5-0.7c1-0.4,2.1-1.3,2.7-2.1c-0.1-0.4-0.2-0.7-0.4-1.1c-0.6,0.4-1.1,0.7-1.7,1
			c-0.1-0.2-0.4-0.4-0.5-0.6c0.6-0.3,1.3-0.6,1.8-1c-0.3-0.4-0.7-0.7-1.2-1.1l0.6-0.5c0.5,0.3,0.9,0.7,1.2,1.1
			c0.4-0.3,0.7-0.6,0.9-0.9L26,7.9z M24.9,6.3h-2.8V5.5h2.8V4.5h0.9v0.9h3.1V4.5h0.9v0.9h2.8v0.8h-2.8v0.9h-0.9V6.3h-3.1v1h-0.9V6.3
			z M29.5,10.4c0.5,2,1.5,3.6,3.2,4.3c-0.2,0.2-0.5,0.5-0.6,0.7c-1.4-0.7-2.4-2.1-3-3.8c-0.4,1.3-1.2,2.7-3,3.8
			c-0.2-0.2-0.4-0.4-0.6-0.6c2.2-1.3,2.8-3,3-4.5h-2.7V9.5h2.8c0-0.1,0-0.3,0-0.4V7.4h0.8v1.8c0,0.1,0,0.3,0,0.4h3.1v0.8
			C32.5,10.4,29.5,10.4,29.5,10.4z M30.4,7.5c0.6,0.4,1.3,1,1.7,1.5l-0.6,0.5c-0.3-0.4-1-1.1-1.6-1.5L30.4,7.5z"/>
		<path class="st1" d="M36.4,13.1c0.2,0.1,0.5,0.4,0.9,0.6c0.8,0.5,1.8,0.6,3.1,0.6c1.4,0,3.2-0.1,4.4-0.2c-0.1,0.2-0.2,0.6-0.3,0.9
			c-0.8,0-2.9,0.1-4.2,0.1c-1.5,0-2.5-0.1-3.3-0.7c-0.5-0.3-0.9-0.7-1.2-0.7c-0.4,0-1,0.7-1.6,1.5l-0.6-0.7c0.6-0.6,1.2-1.2,1.7-1.4
			V9.8h-1.7V9h2.5v4.2H36.4z M36.2,7.5c-0.4-0.6-1.3-1.4-2-2.1l0.6-0.5c0.7,0.6,1.6,1.4,2.1,2L36.2,7.5z M38.6,13.6h-0.9V7.5h3.4
			c-0.7-0.4-1.6-0.7-2.3-1L39.4,6c0.5,0.2,1.2,0.4,1.7,0.7c0.6-0.3,1.2-0.7,1.7-1h-5V5h5.9h0.2l0.5,0.4C43.8,6,42.8,6.7,42,7
			c0.3,0.2,0.6,0.3,0.9,0.5h1.6v5.3c0,0.4-0.1,0.6-0.4,0.8c-0.3,0.1-0.8,0.1-1.6,0.1c0-0.2-0.1-0.5-0.2-0.7c0.6,0,1.1,0,1.2,0
			c0.2,0,0.2,0,0.2-0.2v-1.1h-2.1v2h-0.8v-2h-2v1.9H38.6z M38.6,8.1v1.1h2V8.1H38.6z M40.6,11V9.9h-2V11H40.6z M41.4,8.1v1.1h2.1
			V8.1H41.4z M43.4,11V9.9h-2.1V11H43.4z"/>
		<path class="st1" d="M48.5,13c0.2,0.1,0.5,0.4,0.9,0.6c0.8,0.5,1.8,0.6,3.1,0.6c1.4,0,3.2-0.1,4.4-0.2c-0.1,0.2-0.3,0.7-0.3,1
			c-0.9,0.1-3,0.1-4.1,0.1C51,15,50,15,49.2,14.4c-0.5-0.3-0.9-0.7-1.2-0.7c-0.4,0-1,0.7-1.6,1.5l-0.6-0.8c0.6-0.7,1.3-1.2,1.8-1.4
			V9.9H46V9h2.5V13z M48.1,7.3c-0.3-0.6-1.1-1.4-1.8-2.1L47,4.7c0.7,0.6,1.5,1.4,1.8,2L48.1,7.3z M54,7.5h-4.6V6.5H54V4.5h0.9v2.1
			h1.7v0.9h-1.7v4.7c0,0.6-0.2,0.9-0.6,1c-0.4,0.1-1.1,0.2-2.3,0.2c0-0.3-0.2-0.6-0.3-0.9c0.9,0,1.7,0,1.9,0s0.3-0.1,0.3-0.3V7.5H54
			z M50.6,8.4C51.2,9,52,10,52.3,10.7l-0.8,0.5c-0.3-0.6-1.1-1.7-1.7-2.4L50.6,8.4z"/>
	</g>
</g>
</svg>
