<?xml version="1.0" encoding="utf-8"?>
<!-- Generator: Adobe Illustrator 22.0.1, SVG Export Plug-In . SVG Version: 6.00 Build 0)  -->
<svg version="1.1" id="图层_1" xmlns="http://www.w3.org/2000/svg" xmlns:xlink="http://www.w3.org/1999/xlink" x="0px" y="0px"
	 viewBox="0 0 62 20" style="enable-background:new 0 0 62 20;" xml:space="preserve">
<style type="text/css">
	.st0{fill:none;stroke:#FDBF78;stroke-miterlimit:10;}
	.st1{fill:#FF9900;}
</style>
<g>
	<path class="st0" d="M60,19.5H8.2c-0.3,0-0.6-0.2-0.8-0.4l-6.2-8.5c-0.2-0.3-0.2-0.8,0-1.1l6.2-8.5c0.2-0.3,0.5-0.4,0.8-0.4H60
		c0.5,0,1,0.4,1,1v17.1C61,19.1,60.6,19.5,60,19.5z"/>
	<g>
		<path class="st1" d="M12.8,9.7L10.1,10L10,9.3c0.8-0.1,1.7-0.2,2.8-0.3V8h-1.4c-0.5,0-0.9,0.1-1,0.2c0-0.2-0.2-0.6-0.3-0.8
			c0.2,0,0.4-0.2,0.6-0.5c0.1-0.1,0.3-0.4,0.6-0.8H10V5.3h1.8c0.1-0.3,0.3-0.6,0.4-0.8l0.9,0.3C13,5,12.8,5.1,12.7,5.3h2.8V6h-3.2
			c-0.3,0.5-0.6,0.9-1,1.3h1.5V6.5h0.8v0.8h1.9V8h-1.9v0.9c0.6-0.1,1.2-0.1,1.8-0.2l0,0.7l-1.8,0.2v1.2h-0.8V9.7z M11.5,11h7.8v4.4
			h-0.9V15h-6.1v0.4h-0.9V11z M12.3,11.7v1h6.1v-1H12.3z M18.4,14.3v-1h-6.1v1H18.4z M20.7,7.9h-1.4v2.8h-0.8V7.9h-1.6
			c-0.1,1-0.3,2.1-0.9,2.8c-0.1-0.1-0.5-0.4-0.7-0.4c0.8-1,0.9-2.2,0.9-3.2V5.3C17.4,5.2,19,5,19.9,4.7l0.5,0.7
			c-0.9,0.3-2.2,0.5-3.5,0.6v1.2v0.1h3.8V7.9z"/>
		<path class="st1" d="M25.7,10.7c0,0.2,0,0.6,0,0.8c-3,0.6-3.4,0.7-3.6,0.9c0-0.2-0.2-0.6-0.3-0.8c0.3,0,0.5-0.3,0.9-0.8
			c0.2-0.2,0.7-0.8,1.2-1.6c-1.5,0.2-1.8,0.2-1.9,0.3c0-0.2-0.2-0.6-0.3-0.8c0.2,0,0.4-0.3,0.7-0.7c0.3-0.4,1.1-1.9,1.6-3.4l0.9,0.4
			c-0.5,1.3-1.2,2.6-2,3.6l1.5-0.1c0.3-0.4,0.5-0.9,0.7-1.3L26,7.5c-0.8,1.3-1.7,2.6-2.6,3.6L25.7,10.7z M25.8,13.4
			c-1.3,0.5-2.8,1-3.8,1.3l-0.2-0.9c1-0.3,2.4-0.7,3.9-1.2L25.8,13.4z M31.9,11.2c-0.4,1.1-0.9,2-1.6,2.7c0.8,0.4,1.7,0.7,2.7,0.9
			c-0.2,0.2-0.4,0.5-0.6,0.8c-1.1-0.2-2-0.6-2.8-1.1c-0.8,0.5-1.7,0.9-2.6,1.1c-0.1-0.2-0.3-0.5-0.5-0.7c0.9-0.2,1.7-0.5,2.4-0.9
			c-0.5-0.4-1-0.9-1.4-1.5c-0.4,1.2-1.1,2.3-2.2,3.1c-0.1-0.2-0.4-0.5-0.6-0.6c1.6-1.1,2.2-2.9,2.5-4.7h-1.7V9.4h1.8
			c0-0.3,0.1-0.6,0.1-0.9H26V7.7h4.3c0.4-0.6,0.9-1.4,1.1-2L32.2,6c-0.3,0.6-0.7,1.2-1.1,1.7h1.4v0.7h-4.2c0,0.3-0.1,0.6-0.1,0.9
			h4.5v0.8h-4.6c0,0.3-0.1,0.5-0.2,0.8h3.3l0.2,0L31.9,11.2z M32.4,5.3c-1.6,0.4-4.2,0.6-6.3,0.6c0-0.2-0.1-0.5-0.2-0.7
			c2.1-0.1,4.6-0.3,6-0.6L32.4,5.3z M27.1,6c0.2,0.5,0.5,1.1,0.6,1.5l-0.7,0.3c-0.1-0.4-0.3-1-0.6-1.5L27.1,6z M28,11.7
			c0.4,0.7,0.9,1.3,1.6,1.7c0.5-0.5,1-1,1.3-1.7H28z M28.8,7.6c0-0.4-0.2-1.1-0.3-1.6l0.7-0.1c0.2,0.5,0.3,1.2,0.4,1.6L28.8,7.6z"/>
		<path class="st1" d="M44.2,10.9c-0.7,0.6-1.6,1.2-2.3,1.7c0.8,0.8,1.8,1.4,3,1.7c-0.2,0.2-0.5,0.5-0.6,0.8c-2.5-0.8-4.1-2.6-5-5.1
			c-0.5,0.6-1.2,1.1-1.9,1.6v2.7l2.9-0.9c0,0.2,0.1,0.6,0.1,0.8c-3.3,1.1-3.8,1.2-4,1.4c-0.1-0.2-0.2-0.6-0.4-0.8
			c0.2-0.1,0.5-0.3,0.5-0.8v-1.8c-0.7,0.4-1.4,0.7-2.1,1c-0.1-0.2-0.4-0.5-0.6-0.7c1.5-0.5,3.2-1.4,4.3-2.4h-4V9.2h4.7V8.1h-3.6V7.4
			h3.6v-1h-4.2V5.6h4.2V4.5h0.9v1.1h4.4v0.8h-4.4v1h3.8v0.7h-3.8v1.1h4.7v0.8h-4.4c0.3,0.8,0.7,1.5,1.3,2.1c0.7-0.5,1.6-1.2,2.1-1.7
			L44.2,10.9z"/>
		<path class="st1" d="M48.6,11c-0.6,1.3-1.3,2.8-2,3.9l-0.8-0.5c0.6-0.9,1.4-2.6,2.1-3.9L48.6,11z M47.8,7.9
			c-0.3-0.7-1.2-1.7-1.8-2.4L46.7,5c0.7,0.7,1.5,1.7,1.9,2.4L47.8,7.9z M53.4,10.9c0.6,1.8,1.7,3.2,3.5,3.8
			c-0.2,0.2-0.5,0.5-0.6,0.8c-1.8-0.7-3-2.2-3.6-4.2c-0.4,1.6-1.4,3.1-3.7,4.3c-0.1-0.2-0.4-0.5-0.6-0.7c2.3-1,3.2-2.5,3.5-3.9H49
			V10h3C52,9.5,52,9,52,8.5V7.3h-2.4V6.4H52V4.5H53v1.9h2.7V10h1.2v0.9H53.4z M53,8.5c0,0.5,0,1-0.1,1.5h1.9V7.3H53V8.5z"/>
	</g>
</g>
</svg>
