<?xml version="1.0" standalone="no"?><!DOCTYPE svg PUBLIC "-//W3C//DTD SVG 1.1//EN" "http://www.w3.org/Graphics/SVG/1.1/DTD/svg11.dtd"><svg t="1523434573409" class="icon" style="" viewBox="0 0 1024 1024" version="1.1" xmlns="http://www.w3.org/2000/svg" p-id="1779" xmlns:xlink="http://www.w3.org/1999/xlink" width="48" height="48"><defs><style type="text/css"></style></defs><path d="M888.32 143.36c-138.24 0-268.8-48.64-355.84-133.12-12.8-12.8-30.72-12.8-43.52 0-87.04 84.48-217.6 133.12-355.84 133.12-17.92 0-30.72 12.8-30.72 30.72V563.2c0 122.88 64 240.64 171.52 309.76l220.16 145.92c5.12 2.56 10.24 5.12 17.92 5.12 5.12 0 12.8-2.56 17.92-5.12l220.16-145.92C857.6 801.28 921.6 686.08 921.6 563.2V174.08c-2.56-17.92-17.92-30.72-33.28-30.72zM640 545.28c17.92 0 30.72 15.36 30.72 30.72s-15.36 30.72-30.72 30.72h-97.28v97.28c0 17.92-15.36 30.72-30.72 30.72-17.92 0-30.72-15.36-30.72-30.72v-97.28H384c-17.92 0-30.72-15.36-30.72-30.72s15.36-30.72 30.72-30.72h97.28v-66.56H384c-17.92 0-30.72-15.36-30.72-30.72 0-17.92 15.36-30.72 30.72-30.72h61.44l-61.44-76.8c-10.24-12.8-7.68-33.28 5.12-46.08 12.8-10.24 33.28-10.24 43.52 5.12l76.8 97.28 76.8-97.28c10.24-12.8 30.72-15.36 43.52-5.12 12.8 10.24 15.36 30.72 5.12 46.08l-61.44 76.8H640c17.92 0 30.72 15.36 30.72 30.72 0 17.92-15.36 30.72-30.72 30.72h-97.28v66.56H640z" p-id="1780" fill="#f56c6c"></path></svg>