<?xml version="1.0" standalone="no"?><!DOCTYPE svg PUBLIC "-//W3C//DTD SVG 1.1//EN" "http://www.w3.org/Graphics/SVG/1.1/DTD/svg11.dtd"><svg t="1523439363158" class="icon" style="" viewBox="0 0 1024 1024" version="1.1" xmlns="http://www.w3.org/2000/svg" p-id="1503" xmlns:xlink="http://www.w3.org/1999/xlink" width="48" height="48"><defs><style type="text/css"></style></defs><path d="M369.647363 670.316725l-19.004843-50.720172-19.052938 50.720172-50.703799 0 41.178865 31.698956-18.989493 57.093323 47.566342-34.887578 47.582715 34.887578-19.035542-57.093323 41.206494-31.698956L369.647363 670.316725zM350.64252 442.208471l-19.052938 50.783617-50.703799 0 41.178865 31.714306-18.989493 57.06774 47.566342-34.894741 47.582715 34.894741-19.035542-57.06774 41.206494-31.714306-50.748824 0L350.64252 442.208471zM711.864492 496.004701 503.988024 496.004701c-13.242606 0-23.969924 10.729365-23.969924 23.985274 0 13.242606 10.727319 23.985274 23.969924 23.985274l207.877491 0c13.258978 0 24.001647-10.742668 24.001647-23.985274C735.866139 506.73509 725.12347 496.004701 711.864492 496.004701zM767.831154 128.222313 256.134053 128.222313c-70.644967 0-127.908158 57.263192-127.908158 127.924531l0 511.706311c0 70.644967 57.263192 127.924531 127.908158 127.924531L767.831154 895.777687c70.662363 0 127.940904-57.279564 127.940904-127.924531L895.772059 256.146844C895.772059 185.485505 838.492494 128.222313 767.831154 128.222313zM516.230859 176.193885l163.15287 0 0 151.066601-67.988464-42.786479c-7.512091-4.732791-17.068747-4.777817-24.62484-0.124843l-70.538543 43.410696L516.231883 176.193885zM847.785138 751.862973c0 52.969399-42.943045 95.944166-95.92677 95.944166L272.125259 847.807139c-52.969399 0-95.92677-42.974767-95.92677-95.944166L176.198489 272.123724c0-52.984748 42.957371-95.92984 95.92677-95.92984l197.490933 0 0 193.276958c0 8.447393 4.578272 16.223496 11.948123 20.346397 7.370875 4.122901 16.395412 3.936659 23.579021-0.499373l93.694939-57.652048 91.445712 57.527205c3.780093 2.38942 8.089235 3.591805 12.4301 3.591805 3.873214 0 7.745405-0.968048 11.258415-2.904143 7.419993-4.107551 12.040221-11.930727 12.040221-20.409842L726.012723 176.193885l25.845645 0c52.983725 0 95.92677 42.944068 95.92677 95.92984L847.785138 751.862973zM711.864492 687.901219 503.988024 687.901219c-13.242606 0-23.969924 10.710946-23.969924 23.985274 0 13.242606 10.727319 23.985274 23.969924 23.985274l207.877491 0c13.258978 0 24.001647-10.742668 24.001647-23.985274C735.866139 698.611142 725.12347 687.901219 711.864492 687.901219z" p-id="1504" fill="#67c23a"></path></svg>