<?xml version="1.0" standalone="no"?><!DOCTYPE svg PUBLIC "-//W3C//DTD SVG 1.1//EN" "http://www.w3.org/Graphics/SVG/1.1/DTD/svg11.dtd"><svg class="icon" width="32px" height="32.00px" viewBox="0 0 1024 1024" version="1.1" xmlns="http://www.w3.org/2000/svg"><path fill="#e6e6e6" d="M99.004363 643.133619c0 0-52.294017 95.622848 0 227.106438l137.458675 0c0 0 174.811398 76.199473 210.670094 85.164658s146.423861 2.988054 230.094492-8.965186 110.564142-52.294017 155.388023-104.588033c44.823881-52.294017 115.047246-124.011408 119.529327-186.764638 4.483104-62.755276-46.317908-56.779168-73.211419-37.352723-26.89351 19.423375-82.671884 80.682577-82.671884 80.682577s-36.851303 36.851303-62.753229 56.776098c0 0 2.989077 7.966439-7.966439 31.871895-10.954493 23.905456-45.815465 57.774845-76.695776 57.774845s-204.197682 0.991584-204.197682 0.991584-31.871895-6.968715-29.882588-19.913539c11.95324-3.980661 20.912285-8.965186 34.860972-8.965186s181.289949-0.991584 192.244442-1.989307 70.718645-40.83708 70.718645-74.706469c0-33.868365-28.878724-73.706699-69.720921-73.706699-40.84322 0-197.222827 0-197.222827 0s-8.965186-8.965186-39.845497-29.882588c-30.880311-20.917402-35.858696-27.892257-122.517381-27.892257-86.658685 0-108.568694 30.880311-130.484843 32.870642S99.004363 643.133619 99.004363 643.133619zM677.729044 643.636063c0 0 14.941294 15.939017 20.917402 16.936741 0 0 88.655156-89.657996 98.115622-95.135754 9.460466-5.478781 29.386284-15.440667 34.364669-16.436344 4.978385-0.994654-5.977132-9.463536-38.35147-4.980431C760.401951 548.502355 680.220794 641.149429 677.729044 643.636063zM719.564871 682.971953l19.919678 26.39823c0 0 98.610902-99.408057 113.553219-107.724467 14.941294-8.316409 26.89351-15.291265 30.880311-15.291265s-25.586748-25.895787-51.641147-3.983731C806.222533 604.2838 719.564871 682.971953 719.564871 682.971953zM786.753109 64.207347 645.535831 305.892829l100.117209 0 0 72.719208L621.997742 378.612037l0 55.151088 123.655298 0 0 73.41915L621.997742 507.182274l0 100.82022L510.28852 608.002494l0-100.82022L382.419248 507.182274 382.419248 433.762101l127.869273 0 0-55.151088L382.419248 378.611014l0-72.719208 102.930277 0L347.996251 64.207347l119.436206 0c54.097082 111.944582 88.286766 185.716772 102.574167 221.310432l2.462075 0c1.867534-5.14723 4.092201-11.590989 6.671956-19.317974 4.220115-12.410658 21.081131-48.946782 50.590212-109.60428l43.906999-92.387154L786.753109 64.208371z" /></svg>