<?xml version="1.0" standalone="no"?><!DOCTYPE svg PUBLIC "-//W3C//DTD SVG 1.1//EN" "http://www.w3.org/Graphics/SVG/1.1/DTD/svg11.dtd"><svg class="icon" width="32px" height="32.00px" viewBox="0 0 1024 1024" version="1.1" xmlns="http://www.w3.org/2000/svg"><path fill="#e6e6e6" d="M578.414107 482.326167c3.210112 1.090844 6.699586 2.087545 10.407024 2.944052C585.113693 484.413712 581.624219 483.415988 578.414107 482.326167zM614.216521 487.427348c-3.146667 0.163729-6.201236 0.163729-9.160637 0 1.557472 0.085958 3.053546 0.296759 4.64274 0.296759C611.161952 487.724107 612.688725 487.513306 614.216521 487.427348zM591.781556 485.807455c2.867304 0.568958 5.765307 1.028423 8.849552 1.347694C597.577562 486.835877 594.617138 486.368226 591.781556 485.807455zM618.173646 487.178685c4.517897-0.444115 9.066493-1.137916 13.771655-2.423189C627.240139 486.040768 622.659821 486.73457 618.173646 487.178685zM801.121352 607.124498l0.37453-0.405229-14.208607-14.208607-9.005095-8.974395-15.548114-15.547091-8.007371-8.039093-77.44586-77.444836c-9.129938 6.402827-22.060435 13.07069-40.942481 18.250666-8.631588 2.359744-17.574261 3.560082-26.640754 3.560082-35.925211 0-62.847373-18.780739-63.345724-19.154245l-74.624605-47.860031-12.665461 12.665461c2.102894 17.784038 6.340405 60.121286 2.695389 89.293699-5.671163 45.367257-47.953152 58.733683-49.760311 59.294454l-14.223956 4.330632-5.842055-13.678534c-0.280386-0.62217-26.796296-62.597687-44.369533-110.88546-21.141506-58.165748 18.851347-95.556333 20.00359-96.608292l54.357002-54.340629-37.905308-37.905308L204.34555 469.153146l66.002226 65.99404c0 0 7.329942 9.347902 10.577916 20.845771 1.355881 4.860704 1.88493 9.721409 2.072195 13.802354 13.429871 0.063445 26.01756 5.297656 35.521005 14.801101 11.871375 11.871375 16.23373 28.447912 13.646811 44.183292l1.526773 1.526773c8.692986-6.356778 19.101033-10.033517 29.943986-10.033517 13.522991 0 26.250874 5.265934 35.833113 14.830777 12.276604 12.276604 16.762779 29.662577 13.58439 45.834908 9.175987-7.633864 20.720927-11.872399 32.654724-11.872399 13.554714 0 26.267247 5.265934 35.848463 14.8318 18.58631 18.632359 19.739577 48.919153 2.632967 68.985164-0.249687 0.280386-0.467651 0.530073-0.717338 0.779759-0.560772 0.809435-1.199315 1.589195-1.916653 2.305509l-5.063319 5.047969c3.551896-0.778736 7.135514-1.307785 10.780531-1.307785 13.553691 0 26.267247 5.265934 35.833113 14.855336 14.8318 14.830777 18.414395 37.110199 10.562567 55.710836l3.64604 3.64604c0.280386 0.342808 0.405229 0.779759 0.747014 1.089821 0.312108 0.342808 0.748037 0.436952 1.059122 0.717338l0.124843 0.12382 0-0.030699c5.951549 4.891404 14.426571 4.830005 20.222577-0.279363l0.124843 0.093121 0.62217-0.623193 26.236548-26.203802 0.9967-1.028423-0.187265-0.187265c4.798283-5.764284 4.798283-13.990642 0-19.754926l0.37453-0.405229-14.20963-14.208607-7.976672-7.968485 17.262152-17.262152c3.210112 3.177366 5.671163 5.577019 5.483898 5.359055l23.119557 23.11137c0.249687 0.342808 0.373507 0.748037 0.685615 1.060145 0.342808 0.342808 0.748037 0.466628 1.122567 0.716314l0.093121 0.12382 0.030699-0.030699c5.889127 4.924149 14.395872 4.830005 20.190855-0.279363l0.124843 0.12382 0.653893-0.653893 26.204825-26.197662 1.028423-0.997724-0.218988-0.217964c4.767584-5.764284 4.767584-13.95892 0-19.754926l0.37453-0.373507-25.113981-25.14468-5.359055-5.265934 16.981766-16.950044c11.808954 11.715833 26.078958 25.89374 26.485211 26.236548l10.468422 10.468422c0.280386 0.342808 0.405229 0.748037 0.716314 1.090844 0.312108 0.312108 0.747014 0.435928 1.089821 0.716314l0.094144 0.093121 0.030699 0c5.919826 4.892427 14.426571 4.830005 20.190855-0.311085l0.12382 0.12382 0.654916-0.62217 26.236548-26.236548 0.9967-0.997724-0.217964-0.217964c4.798283-5.764284 4.798283-13.95892 0-19.754926l0.405229-0.373507-25.113981-25.113981-13.710256-13.58439 17.574261-17.574261 24.553209 24.553209c0.62217 0.623193 1.339508 1.059122 1.9934 1.619894l10.484795 10.469446c0.280386 0.342808 0.405229 0.778736 0.747014 1.089821 0.312108 0.342808 0.748037 0.467651 1.090844 0.747014l0.093121 0.094144 0-0.030699c5.951549 4.891404 14.427594 4.830005 20.222577-0.280386l0.124843 0.124843 0.62217-0.654916 26.236548-26.203802 0.997724-0.997724-0.188288-0.217964C805.919634 621.114117 805.919634 612.919481 801.121352 607.124498zM648.148331 682.559561l0.093121-0.093121 13.617136 13.646811 0.124843 0.124843C662.200372 696.487781 655.812895 690.131003 648.148331 682.559561zM569.503157 478.835669c2.056845 0.895393 4.299933 1.768273 6.699586 2.656503C573.834812 480.620315 571.529303 479.732086 569.503157 478.835669zM555.29455 471.194642c0 0 0.467651 0.319272 1.277086 0.832971C555.887045 471.599871 555.29455 471.194642 555.29455 471.194642zM557.538661 472.620108c0.778736 0.483001 1.714038 1.028423 2.928702 1.705851C559.314097 473.679229 558.285674 473.086735 557.538661 472.620108zM562.460764 475.423967c1.308809 0.678452 2.710738 1.38658 4.330632 2.134617C565.203224 476.825896 563.738873 476.094232 562.460764 475.423967zM729.814306 157.308769 623.502002 263.645632l229.561349 229.554186 106.34505-106.344027L729.814306 157.308769zM861.351108 437.940261l-34.212196-34.220383 34.212196-34.220383 34.243919 34.220383L861.351108 437.940261zM64.030827 378.691855l98.640578 98.641601 221.469044-221.469044-98.633415-98.640578L64.030827 378.691855zM180.447257 413.348166c-9.822716 9.822716-25.745361 9.822716-35.55989 0-9.822716-9.81453-9.822716-25.745361 0-35.568077 9.81453-9.822716 25.737174-9.822716 35.55989 0C190.269973 387.602805 190.269973 403.533636 180.447257 413.348166zM308.517097 642.801045c11.513218-13.492292 11.030218-33.713846-1.729387-46.489824-12.759605-12.743232-32.958646-13.210883-46.457078-1.714038l-0.01535 0-0.101307 0.094144c-0.662079 0.591471-1.38658 1.028423-2.009773 1.619894l-8.981559 9.005095c-0.61603 0.623193-1.067308 1.340531-1.636267 1.994424l-10.469446 10.500145c-0.342808 0.249687-0.77055 0.405229-1.098008 0.685615-0.312108 0.342808-0.435928 0.779759-0.716314 1.122567l-0.109494 0.093121 0.023536 0c-4.891404 5.92085-4.837168 14.427594 0.296759 20.222577l-0.13303 0.124843 0.639566 0.62217 26.220175 26.236548 1.004887 0.997724 0.210801-0.187265c5.77247 4.76656 13.966083 4.76656 19.762089 0l0.37453 0.373507 14.223956-14.208607 8.973372-8.974395 1.932002-1.932002L308.517097 642.801045zM513.105682 832.736908c11.497868-13.492292 11.030218-33.682124-1.728364-46.457078s-32.981159-13.241582-46.473451-1.714038l0-0.030699c0 0-1.49505 1.153266-2.118244 1.744737l-16.296151 16.296151c-0.623193 0.623193-1.059122 1.340531-1.635243 1.994424l-10.469446 10.468422c-0.327458 0.312108-0.763386 0.405229-1.090844 0.748037-0.327458 0.311085-0.435928 0.747014-0.731664 1.089821l-0.093121 0.093121 0.030699 0.031722c-4.892427 5.919826-4.830005 14.394848 0.280386 20.189831l-0.124843 0.124843 0.638543 0.654916 26.220175 26.203802 1.01205 1.028423 0.202615-0.217964c5.764284 4.76656 13.974269 4.76656 19.754926 0l0.388856 0.373507 14.223956-14.208607 8.973372-8.974395 9.223059-9.223059L513.105682 832.736908zM389.467781 693.309392c11.497868-13.522991 11.014868-33.712823-1.744737-46.457078-12.744255-12.774955-32.965809-13.241582-46.458101-1.744737l-23.493064 23.462365-0.093121 0.094144c-0.653893 0.560772 22.091134-22.434965 21.467941-21.810748l-8.974395 8.974395c-0.623193 0.591471-1.074472 1.340531-1.651616 1.9934l-33.93181 33.962509c-0.342808 0.280386-0.778736 0.37453-1.090844 0.717338-0.312108 0.311085-0.435928 0.747014-0.716314 1.059122l-0.124843 0.12382 0.031722 0.031722c-4.892427 5.889127-4.830005 14.394848 0.295735 20.189831l-0.140193 0.124843 0.654916 0.654916 26.204825 26.203802 1.01205 0.997724 0.202615-0.187265c5.779633 4.76656 13.974269 4.76656 19.754926 0l0.405229 0.373507 37.670971-37.670971 8.974395-8.974395-21.531386 21.531386L389.467781 693.309392zM471.540008 742.135424c11.513218-13.522991 11.030218-33.713846-1.714038-46.488801-12.774955-12.744255-32.965809-13.211906-46.458101-1.744737l-40.132022 40.132022-0.093121 0.094144c-0.670266 0.560772 38.699394-39.104623 38.09155-38.480406l-8.989745 9.005095c-0.607844 0.591471-41.160445 41.410132-41.73759 42.095747l-10.469446 10.468422c-0.342808 0.280386-0.763386 0.405229-1.106194 0.716314-0.311085 0.342808-0.435928 0.748037-0.716314 1.090844l-0.093121 0.12382 0.01535 0c-4.891404 5.919826-4.828982 14.419408 0.296759 20.214391l-0.124843 0.094144 0.623193 0.654916 26.235524 26.235524 0.997724 0.997724 0.217964-0.217964c5.764284 4.797259 13.959943 4.797259 19.754926 0l0.373507 0.405229 54.30993-54.301743 9.005095-9.005095-38.184671 38.192857L471.540008 742.135424zM463.625758 309.122383l-84.315314 84.330664c0 0-33.745569 30.800493-16.140609 79.19776 17.60496 48.397267 43.996027 110.013603 43.996027 110.013603s33.745569-10.251481 38.138622-45.460378c4.393054-35.225269-3.739161-93.219101-3.739161-93.219101l27.870768-27.863604 85.85846 55.073316c0 0 35.208896 24.919553 76.649727 13.561877 41.410132-11.357675 49.480948-29.701462 49.480948-29.701462l79.93761 79.93761 50.632167-50.609655L622.784664 295.185976l-31.314193 31.29168L463.625758 309.122383z" /></svg>